 <?xml version="1.0" encoding="UTF-8"?>
<svg version="1.1" xmlns="http://www.w3.org/2000/svg" width="484" height="484">
 <path id="p1" pathLength="1" transform="translate(238.0525665283203,109.86628723144531)"
           d="M0 0 C1.24067734 -0.00426498 2.48135468 -0.00852997 3.7596283 -0.01292419 C5.13188175 -0.01257469 6.50413517 -0.01211317 7.87638855 -0.0115509 C9.32373135 -0.01454359 10.77107335 -0.01794638 12.21841431 -0.02172852 C16.14827845 -0.03056234 20.07812082 -0.03290639 24.00799394 -0.0335443 C26.46443486 -0.03425525 28.92087025 -0.03639043 31.3773098 -0.03904152 C39.950574 -0.04829346 48.52382265 -0.05237667 57.09709167 -0.05158997 C65.0825315 -0.05098947 73.06790371 -0.0615362 81.05332643 -0.07733363 C87.91376017 -0.09042076 94.77417185 -0.09577336 101.63461798 -0.09513456 C105.72996535 -0.09487988 109.82525264 -0.09771426 113.92058754 -0.10831261 C117.77424257 -0.11801313 121.62778036 -0.1180594 125.48143959 -0.11079597 C126.8927172 -0.1097525 128.30400219 -0.11209889 129.71526718 -0.11815643 C145.6026436 -0.18191099 145.6026436 -0.18191099 152.19743347 4.38371277 C156.27662577 8.46290507 158.09109577 11.99952749 158.28800964 17.76213074 C158.28753878 19.55012428 158.27083415 21.33816566 158.24040222 23.12590027 C158.23615738 24.07184052 158.23191254 25.01778076 158.22753906 25.99238586 C158.21081654 28.9981241 158.1731761 32.00317897 158.13493347 35.00871277 C158.11987833 37.05297388 158.10619138 39.09724556 158.09391785 41.14152527 C158.06093402 46.13918231 158.00919601 51.13633188 157.94743347 56.13371277 C158.63688049 56.12140121 159.32632751 56.10908966 160.03666687 56.09640503 C161.93749602 56.06246165 163.83833474 56.02905059 165.73918152 55.99610901 C167.7286745 55.95945503 169.71800953 55.91395354 171.7071991 55.8634491 C178.76812994 55.802871 184.63210287 56.31312276 190.22477722 61.07121277 C190.77262878 61.75183777 191.32048035 62.43246277 191.88493347 63.13371277 C192.45083191 63.81433777 193.01673035 64.49496277 193.59977722 65.19621277 C196.34329853 69.14052167 196.10733989 73.08355228 196.12443542 77.69108582 C196.13100662 78.4589592 196.13757782 79.22683258 196.14434814 80.01797485 C196.16406521 82.56046144 196.17574165 85.10288892 196.18571472 87.64543152 C196.18979025 88.51530008 196.19386578 89.38516865 196.1980648 90.28139687 C196.21892114 94.88768399 196.2332234 99.49394138 196.24259949 104.1002655 C196.25364866 108.84705059 196.28803241 113.59336493 196.32777119 118.33998394 C196.35397988 121.99898114 196.3622952 125.65786704 196.36588097 129.31694984 C196.37073781 131.06596357 196.38232601 132.81497263 196.40091896 134.56389427 C196.42539631 137.01942537 196.42432993 139.47375007 196.41740417 141.92936707 C196.43021423 142.64395081 196.44302429 143.35853455 196.45622253 144.09477234 C196.40114506 149.48681325 194.879002 153.60608535 191.94743347 158.13371277 C186.92002957 163.03220888 182.26821518 164.3852152 175.34786987 164.3742218 C174.69839648 164.37593065 174.04892308 164.3776395 173.37976867 164.37940013 C171.21169894 164.38268451 169.0439413 164.37170898 166.87590027 164.36076355 C165.31853238 164.36019921 163.76116396 164.36051645 162.20379639 164.36164856 C157.98103994 164.36222217 153.75839721 164.35046643 149.53566718 164.33650064 C145.12074851 164.32399477 140.70582721 164.3228229 136.29089355 164.32044983 C127.93286666 164.31423464 119.5748921 164.29782329 111.21688825 164.27775085 C101.70063665 164.25539307 92.18438254 164.24439872 82.66811121 164.23435998 C63.09452275 164.21345711 43.52098141 164.17828036 23.94743347 164.13371277 C23.95019885 164.92516693 23.95296423 165.71662109 23.95581341 166.53205872 C24.02211197 185.80391241 24.07173291 205.0757433 24.10286999 224.34768677 C24.11832848 233.66751709 24.13939854 242.98727121 24.17375183 252.30705261 C24.20368535 260.43166786 24.22301587 268.5562279 24.22969896 276.68089676 C24.23360452 280.98150212 24.2427619 285.28194959 24.26462364 289.58250427 C24.28505128 293.63393727 24.29125464 297.68514797 24.28675652 301.73662758 C24.28757892 303.22005739 24.29350717 304.70349498 24.3050499 306.18688011 C24.37488273 315.6277908 24.05420109 322.42917894 18.75993347 330.44621277 C13.41455389 335.55401992 7.27195222 336.58530526 0.00602722 336.5377655 C-1.11761734 336.54806038 -1.11761734 336.54806038 -2.26396179 336.55856323 C-4.71452854 336.5767093 -7.16444771 336.573012 -9.61506653 336.56730652 C-11.33324896 336.57187367 -13.05142956 336.57718083 -14.76960754 336.58319092 C-18.36042226 336.59209766 -21.95101426 336.58972618 -25.54182434 336.57975769 C-30.1282401 336.56826164 -34.71388664 336.58850136 -39.30020142 336.61767483 C-42.84513678 336.63607667 -46.38988906 336.63573663 -49.93486023 336.63003731 C-51.62523987 336.62988463 -53.31563235 336.6358844 -55.00596619 336.64832878 C-73.3620646 336.76446308 -73.3620646 336.76446308 -79.89241028 330.31730652 C-80.25463684 329.74109558 -80.6168634 329.16488464 -80.99006653 328.57121277 C-81.37033997 327.99242371 -81.7506134 327.41363464 -82.14241028 326.81730652 C-84.02666907 323.3318321 -84.1707611 320.47248647 -84.15022278 316.59074402 C-84.14700012 315.51759949 -84.14377747 314.44445496 -84.14045715 313.33879089 C-84.12788879 311.65946472 -84.12788879 311.65946472 -84.11506653 309.94621277 C-84.11055481 308.81506042 -84.10604309 307.68390808 -84.10139465 306.51847839 C-84.08960151 303.7235035 -84.07314303 300.92863457 -84.05256653 298.13371277 C-85.31326965 298.15989685 -86.57397278 298.18608093 -87.87287903 298.21305847 C-92.57663535 298.30396259 -97.28031494 298.36110787 -101.98469543 298.40837097 C-104.015753 298.43342381 -106.04672123 298.46747596 -108.07746887 298.51091003 C-111.00689301 298.57196963 -113.93511931 298.60001503 -116.86506653 298.62199402 C-118.21398987 298.66070366 -118.21398987 298.66070366 -119.59016418 298.70019531 C-125.97144058 298.70299661 -130.09878777 297.18495362 -135.05256653 293.13371277 C-139.36071893 288.49416403 -140.17602852 285.20787268 -140.19973755 278.98034668 C-140.20689285 277.69200424 -140.21404816 276.4036618 -140.22142029 275.07627869 C-140.22426055 273.64530969 -140.22697228 272.21434043 -140.22956848 270.78337097 C-140.23583397 269.27868493 -140.24248084 267.77400043 -140.2494812 266.26931763 C-140.27051641 261.32438737 -140.28088405 256.37945683 -140.29084778 251.43449402 C-140.29489573 249.73118257 -140.29901267 248.02787128 -140.30319786 246.32456017 C-140.32224947 238.32085668 -140.33647976 230.31716242 -140.34480983 222.31344062 C-140.35457826 213.0805097 -140.38088753 203.84781878 -140.42131072 194.61497241 C-140.45149525 187.47514117 -140.46628098 180.33537862 -140.46959084 173.19548482 C-140.47193895 168.93289141 -140.48086788 164.6705544 -140.50605202 160.40802956 C-140.52937836 156.39506714 -140.53354784 152.38252909 -140.52329063 148.36951637 C-140.52279624 146.90059495 -140.52908815 145.43165232 -140.54284668 143.96279526 C-140.6136768 135.94943038 -140.53446302 129.92531488 -136.05256653 123.13371277 C-131.25751688 118.33866312 -125.99926508 116.90360851 -119.29206848 116.75309753 C-105.7725072 116.79009336 -105.7725072 116.79009336 -100.05256653 121.13371277 C-95.81627514 125.64695299 -93.92593813 129.93731083 -93.93231201 136.08810425 C-93.93093735 137.11034088 -93.92956268 138.13257751 -93.92814636 139.18579102 C-93.93353928 140.86677132 -93.93353928 140.86677132 -93.93904114 142.58171082 C-93.93889511 143.76233093 -93.93874908 144.94295105 -93.93859863 146.15934753 C-93.93917629 149.39668718 -93.9441947 152.63398372 -93.95117259 155.87131476 C-93.95742005 159.25458066 -93.95801103 162.63784739 -93.959198 166.02111816 C-93.9623072 172.42777493 -93.97051506 178.83441464 -93.98054749 185.24106389 C-93.99172137 192.53482546 -93.99722229 199.82858783 -94.00224292 207.12235582 C-94.012698 222.12615097 -94.03028951 237.12993017 -94.05256653 252.13371277 C-91.08256653 251.80371277 -88.11256653 251.47371277 -85.05256653 251.13371277 C-85.04670029 249.6436673 -85.04083405 248.15362183 -85.03479004 246.61842346 C-84.97759467 232.58098409 -84.90502656 218.54368938 -84.81685162 204.50641441 C-84.77191323 197.28958472 -84.73249412 190.07280416 -84.70613098 182.85588074 C-84.68313496 176.56456018 -84.64971918 170.27339536 -84.60386497 163.98219836 C-84.57995405 160.65196539 -84.56276568 157.32191913 -84.55495262 153.99160385 C-84.54533943 150.27099899 -84.51731177 146.55095684 -84.48493958 142.83049011 C-84.48637466 141.72997314 -84.48780975 140.62945618 -84.48928833 139.49559021 C-84.40972943 133.03636631 -83.87935681 128.33695212 -79.43928528 123.30558777 C-78.87854309 122.83636902 -78.3178009 122.36715027 -77.74006653 121.88371277 C-77.18705872 121.40418152 -76.6340509 120.92465027 -76.06428528 120.43058777 C-68.55373858 115.58883728 -57.99651707 116.15491852 -49.44319153 117.56340027 C-44.25946303 119.19084991 -40.91093387 122.67320323 -38.05256653 127.13371277 C-36.15472666 131.09210204 -35.80497613 134.24663973 -35.8120575 138.61938477 C-35.80930817 139.93045197 -35.80655884 141.24151917 -35.8037262 142.59231567 C-35.81080364 144.03816315 -35.81807325 145.4840097 -35.82551575 146.92985535 C-35.8260801 148.45766696 -35.82576282 149.98547911 -35.82463074 151.51329041 C-35.82405718 155.65547183 -35.83581197 159.79753729 -35.84977865 163.93969178 C-35.8622855 168.27052869 -35.86345648 172.60136828 -35.86582947 176.93222046 C-35.87204437 185.130876 -35.88845533 193.32947816 -35.90852845 201.52811021 C-35.93088713 210.86298664 -35.9418808 220.19786562 -35.95191932 229.53276217 C-35.97282154 248.73310929 -36.00799772 267.93340674 -36.05256653 287.13371277 C-32.42256653 287.13371277 -28.79256653 287.13371277 -25.05256653 287.13371277 C-25.05533191 286.34225861 -25.05809729 285.55080444 -25.06094646 284.73536682 C-25.12724503 265.46351312 -25.17686597 246.19168224 -25.20800304 226.91973877 C-25.22346154 217.59990845 -25.2445316 208.28015433 -25.27888489 198.96037292 C-25.3088184 190.83575768 -25.32814893 182.71119763 -25.33483201 174.58652878 C-25.33873758 170.28592342 -25.34789496 165.98547595 -25.3697567 161.68492126 C-25.39018433 157.63348827 -25.3963877 153.58227757 -25.39188957 149.53079796 C-25.39271197 148.04736814 -25.39864023 146.56393056 -25.41018295 145.08054543 C-25.53462242 128.25720001 -25.53462242 128.25720001 -19.67756653 121.32121277 C-14.86619219 117.31173415 -11.75384267 115.76000036 -5.41503906 115.73498535 C-4.43470364 115.72501511 -4.43470364 115.72501511 -3.43456346 115.71484345 C-1.25262783 115.69624522 0.92875789 115.69881646 3.11076355 115.70133972 C4.67799146 115.69232058 6.24521231 115.68199298 7.81242371 115.67045593 C12.06201073 115.64287755 16.31146393 115.63360029 20.56112885 115.62760186 C25.00413456 115.61822038 29.44704022 115.59201716 33.88998413 115.56759644 C42.30109002 115.52392154 50.7121765 115.49538066 59.12336129 115.47227305 C68.70013611 115.44522669 78.27681035 115.40131483 87.85351336 115.35598433 C107.55143263 115.26312388 127.249382 115.19144953 146.94743347 115.13371277 C147.27743347 111.83371277 147.60743347 108.53371277 147.94743347 105.13371277 C146.77709611 105.13786084 146.77709611 105.13786084 145.58311558 105.1420927 C126.57795787 105.20841344 107.57282333 105.25802297 88.5675745 105.28914928 C79.37668763 105.30460273 70.18587811 105.32566309 60.99504089 105.36003113 C52.98211741 105.38998015 44.96924997 105.40929884 36.95627207 105.41597825 C32.71543751 105.4198812 28.47476325 105.42902181 24.23398018 105.45090294 C20.23753525 105.47135514 16.24131575 105.47752903 12.24482346 105.47303581 C10.78277674 105.47385712 9.32072203 105.47977064 7.85872078 105.49132919 C-9.77436049 105.62382822 -9.77436049 105.62382822 -16.42756653 100.19621277 C-16.96381653 99.51558777 -17.50006653 98.83496277 -18.05256653 98.13371277 C-18.60944153 97.45308777 -19.16631653 96.77246277 -19.74006653 96.07121277 C-22.90253009 91.40281417 -22.27316032 86.23563007 -22.30256653 80.82121277 C-22.32319153 79.8834198 -22.34381653 78.94562683 -22.36506653 77.97941589 C-22.40071243 71.65672452 -21.77592059 67.2197411 -17.43928528 62.30558777 C-16.87854309 61.83636902 -16.3178009 61.36715027 -15.74006653 60.88371277 C-15.18705872 60.40418152 -14.6340509 59.92465027 -14.06428528 59.43058777 C-7.94493086 55.48568356 -1.55109619 55.86005692 5.46061707 55.90666199 C6.61241455 55.90636993 7.76421204 55.90607788 8.95091248 55.90577698 C12.74930921 55.90716776 16.5475086 55.92271746 20.34587097 55.93840027 C22.98288363 55.94213128 25.61989769 55.94497784 28.25691223 55.94697571 C34.48287333 55.95318185 40.70876385 55.96958089 46.93469393 55.98967469 C54.02537744 56.01206069 61.1160644 56.0230339 68.20677447 56.03306556 C82.78703138 56.05394793 97.36722907 56.0895118 111.94743347 56.13371277 C111.94743347 53.16371277 111.94743347 50.19371277 111.94743347 47.13371277 C110.48910599 47.1403746 109.0307785 47.14703644 107.52825928 47.15390015 C93.77149449 47.21476797 80.01474018 47.25989319 66.25787449 47.28914928 C59.18567035 47.30459053 52.11356703 47.32562725 45.04142761 47.36003113 C38.21387721 47.3932292 31.38643152 47.41057649 24.55880547 47.4183445 C21.95656119 47.42387898 19.35432251 47.43468643 16.75212288 47.45090294 C13.10168803 47.47274304 9.45168312 47.47567686 5.80119324 47.47428894 C4.19464874 47.49046768 4.19464874 47.49046768 2.5556488 47.50697327 C-4.02452689 47.47997818 -11.4221517 47.29489207 -16.63883114 42.75247478 C-21.96966537 36.61277855 -22.44139857 31.70303178 -22.49006653 23.88371277 C-22.52293762 22.96718933 -22.55580872 22.05066589 -22.5896759 21.10636902 C-22.64060938 14.61466607 -21.41697404 10.06066715 -17.05256653 5.13371277 C-11.68776794 0.99422633 -6.61259838 0.01027391 0 0 Z"/>
         <path id="p2" pathLength="1" transform="translate(175.890625,92.58984375)"
         d="M0 0 C14.5674705 11.29161972 23.73541595 27.05945281 26.109375 45.41015625 C27.29155239 62.89087763 23.94509841 80.88225721 12.45703125 94.73828125 C9.80458446 97.76859827 6.98869471 100.59558886 4.109375 103.41015625 C3.54863281 104.003125 2.98789063 104.59609375 2.41015625 105.20703125 C-9.41260451 116.7505142 -27.29032801 120.94389252 -43.23339844 120.7578125 C-62.27498843 120.14486848 -78.00784061 112.141271 -90.890625 98.41015625 C-103.24786911 84.87051167 -108.32262078 68.21015616 -108.09375 50.1484375 C-107.09118512 31.69738768 -98.48365913 15.59499971 -85.390625 2.84765625 C-61.08860677 -18.27327588 -25.71072365 -18.90584036 0 0 Z"/>
         </svg>