<?xml version="1.0" encoding="UTF-8"?>
<svg version="1.1" xmlns="http://www.w3.org/2000/svg" width="492" height="174">
<path d="M0 0 C1.57066004 0.14070417 3.14089306 0.28617911 4.7109375 0.43359375 C5.58540527 0.51407959 6.45987305 0.59456543 7.36083984 0.67749023 C11.02380769 1.125111 14.44708363 2.01307879 18 3 C17.95456055 4.28124756 17.95456055 4.28124756 17.90820312 5.58837891 C17.30994814 22.73298625 16.86795511 39.84250107 17 57 C19.17102305 52.27283462 21.33968558 47.54459548 23.50634766 42.81542969 C24.24075626 41.2132585 24.97576301 39.61136133 25.71142578 38.00976562 C30.27986722 28.06265439 34.75001552 18.08785286 39 8 C40.39583333 8.14583333 41.79166667 8.29166667 43.1875 8.4375 C43.96480469 8.51871094 44.74210937 8.59992187 45.54296875 8.68359375 C48.04640786 9.00597621 50.52490524 9.50498105 53 10 C53.66 28.48 54.32 46.96 55 66 C61.2089505 49.96452346 61.2089505 49.96452346 67.41577148 33.92822266 C68.19246812 31.9234726 68.96923721 29.9187506 69.74609375 27.9140625 C70.15122192 26.86629639 70.5563501 25.81853027 70.97375488 24.73901367 C71.35938599 23.74442139 71.74501709 22.7498291 72.14233398 21.72509766 C72.47764633 20.85905914 72.81295868 19.99302063 73.15843201 19.10073853 C74 17 74 17 75 15 C77.62696231 15.44879766 80.25116893 15.90854114 82.875 16.375 C83.99455078 16.56449219 83.99455078 16.56449219 85.13671875 16.7578125 C90.7734375 17.7734375 90.7734375 17.7734375 93 20 C91.97151199 22.48574248 90.94283813 24.97140781 89.9140625 27.45703125 C89.58540192 28.25131027 89.25674133 29.04558929 88.91812134 29.86393738 C87.06143198 34.34926823 85.20112374 38.83305487 83.33496094 43.31445312 C79.60893309 52.26672223 75.89855522 61.22368187 72.26998901 70.21598816 C70.66419998 74.18925604 69.04344042 78.15632381 67.42059326 82.12265015 C66.6405225 84.04008516 65.86743517 85.96037616 65.10137939 87.88345337 C64.02795411 90.5757142 62.9309265 93.25716553 61.828125 95.9375 C61.5141275 96.7428569 61.20013 97.54821381 60.87661743 98.37797546 C59.95019531 100.58984375 59.95019531 100.58984375 58 104 C53 105 53 105 40 102 C39.34 84.18 38.68 66.36 38 48 C33.0043661 58.93285886 33.0043661 58.93285886 28.00927734 69.8659668 C24.02454291 78.58585774 20.02642233 87.29925861 16 96 C14.29166667 95.875 12.58333333 95.75 10.875 95.625 C9.44800781 95.52058594 9.44800781 95.52058594 7.9921875 95.4140625 C4.80595412 94.9731477 2.03297524 94.05030127 -1 93 C-1.02356719 84.86098178 -1.04113403 76.7219787 -1.05181217 68.58293438 C-1.05694692 64.80031281 -1.06386419 61.0177152 -1.07543945 57.23510742 C-1.13239439 38.12825407 -0.89908825 19.09025278 0 0 Z " fill="#FFFFFF" transform="translate(82,11)"/>
<path d="M0 0 C6.27 0 12.54 0 19 0 C19.33 10.89 19.66 21.78 20 33 C21.65 31.68 23.3 30.36 25 29 C30.31948641 27.22360216 35.68664821 27.81250167 40.859375 29.79296875 C47.12156676 33.32402213 50.74733074 39.36714051 53 46 C54.43883767 52.01048607 54.22359928 58.03943335 54.25 64.1875 C54.270625 65.36892578 54.29125 66.55035156 54.3125 67.76757812 C54.35519724 77.40114358 53.36877951 86.35746459 47 94 C41.97802755 97.79210165 38.36728433 99.15659924 32.125 99.25 C31.09632813 99.27578125 30.06765625 99.3015625 29.0078125 99.328125 C24.25701862 98.80985658 21.15057298 96.48221224 18 93 C17.67 94.65 17.34 96.3 17 98 C11.39 98 5.78 98 0 98 C0 65.66 0 33.32 0 0 Z M20 46 C18.5108291 48.97834179 18.79610606 52.04020559 18.76171875 55.30859375 C18.753647 56.03111832 18.74557526 56.75364288 18.73725891 57.49806213 C18.72342556 59.02708541 18.71270004 60.55613946 18.70483398 62.08520508 C18.68759039 64.42523372 18.64369805 66.76386024 18.59960938 69.10351562 C18.58948488 70.58853127 18.58096802 72.07355893 18.57421875 73.55859375 C18.55671066 74.2586705 18.53920258 74.95874725 18.52116394 75.68003845 C18.53573727 78.9378668 18.57004632 80.56081724 20.89941406 82.94018555 C24.48435397 84.74890523 27.00980549 84.38001852 31 84 C33.35642125 82.34279721 33.93739699 81.21994746 34.73046875 78.43359375 C36.34372654 67.85779267 36.97012565 57.43514733 34 47 C32.2778995 44.84031658 31.28391695 44.10742804 28.6875 43.125 C25.07243186 42.9568573 23.04736968 44.13002315 20 46 Z " fill="#FFFFFF" transform="translate(321,13)"/>
<path d="M0 0 C2.71546221 0.58672853 5.37871454 1.22931067 8.0625 1.9375 C9.20041992 2.23043945 9.20041992 2.23043945 10.36132812 2.52929688 C12.24223908 3.01431165 14.12129838 3.50649664 16 4 C17.14031633 8.12780348 16.78142973 10.77262537 15.56640625 14.8515625 C15.24736328 15.94984375 14.92832031 17.048125 14.59960938 18.1796875 C14.25736328 19.31664063 13.91511719 20.45359375 13.5625 21.625 C12.8938215 23.88704385 12.22830418 26.1500253 11.56640625 28.4140625 C11.26677979 29.4138916 10.96715332 30.4137207 10.65844727 31.44384766 C9.875275 34.04426115 9.875275 34.04426115 10 37 C10.639375 36.649375 11.27875 36.29875 11.9375 35.9375 C17.10784886 34.35474015 21.53117277 34.85841429 26.44140625 37.12890625 C32.81383725 40.98175992 35.72249018 45.03289887 37.55859375 52.171875 C39.67905302 65.20067629 34.68952975 84.96313119 27.0625 95.625 C23.65692522 99.65375985 20.08277692 103.30574103 15 105 C2.39285403 105.94599075 2.39285403 105.94599075 -3 102 C-4.83261718 100.0794172 -6.39375562 98.12591168 -8 96 C-8.39574219 96.50917969 -8.79148438 97.01835937 -9.19921875 97.54296875 C-11 99 -11 99 -13.26953125 98.92578125 C-14.10871094 98.72339844 -14.94789063 98.52101563 -15.8125 98.3125 C-16.64394531 98.12300781 -17.47539062 97.93351562 -18.33203125 97.73828125 C-21.2600035 96.92805174 -24.1212138 95.96918722 -27 95 C-21.7537094 75.10166998 -16.33796466 55.25610895 -10.76098633 35.44799805 C-9.73972064 31.82018879 -8.72350541 28.19098345 -7.70835972 24.56145763 C-6.91543006 21.72911105 -6.11948994 18.89761736 -5.32264519 16.06637001 C-4.94560737 14.72498339 -4.56962484 13.38329967 -4.19473457 12.04131126 C-3.67928074 10.19747374 -3.15922395 8.35492482 -2.63891602 6.51245117 C-2.3454982 5.4682048 -2.05208038 4.42395844 -1.74977112 3.34806824 C-1 1 -1 1 0 0 Z M4 52 C2.68631676 54.97997489 2.68631676 54.97997489 1.7890625 58.4609375 C1.61241058 59.08851959 1.43575867 59.71610168 1.25375366 60.36270142 C0.88535588 61.68706212 0.52438425 63.0135083 0.17041016 64.34179688 C-0.37303038 66.36765756 -0.94833754 68.38249234 -1.52734375 70.3984375 C-1.88216484 71.68956809 -2.23509338 72.98122057 -2.5859375 74.2734375 C-2.9061084 75.44310059 -3.2262793 76.61276367 -3.55615234 77.81787109 C-4.04690813 81.33630396 -3.68421175 82.91651245 -2 86 C0.33715644 88.42062631 1.65022129 88.9489906 5 89.4375 C7.99320196 89.21362399 7.99320196 89.21362399 10.125 87.625 C16.4167046 78.81661355 19.79467543 65.83127802 19.4140625 55.0703125 C19.11101475 52.72154636 19.11101475 52.72154636 16.875 50.375 C11.78126209 47.93886448 8.10768932 48.05649512 4 52 Z " fill="#FFFFFF" transform="translate(227,58)"/>
<path d="M0 0 C6.6 0 13.2 0 20 0 C21.46846607 4.40539822 22.58943513 8.41765956 23.5078125 12.9296875 C23.77207031 14.21875 24.03632813 15.5078125 24.30859375 16.8359375 C24.58080952 18.18227542 24.85294394 19.5286298 25.125 20.875 C25.4046097 22.24486074 25.68455444 23.61465315 25.96484375 24.984375 C26.64652447 28.32225989 27.32479195 31.66080084 28 35 C31.31269408 23.39199409 34.30726771 11.76823742 37 0 C43.6 0 50.2 0 57 0 C55.43956454 8.67247068 53.08209284 17.05478653 50.60546875 25.5 C50.17180328 26.98629978 49.73823683 28.47262846 49.30476379 29.95898438 C48.3992389 33.05951415 47.49012003 36.15896454 46.57885742 39.2578125 C45.4197016 43.20197157 44.27330329 47.14971433 43.13006115 51.09851074 C42.24000727 54.16502917 41.34125009 57.22894785 40.44014931 60.29223633 C40.01411626 61.74558697 39.59112989 63.19983475 39.17143822 64.6550293 C32.3311268 88.33174885 32.3311268 88.33174885 23.2578125 94.109375 C20.24156266 95.29917598 17.67171127 95.26471768 14.4375 95.25 C13.30183594 95.25515625 12.16617187 95.2603125 10.99609375 95.265625 C8 95 8 95 5 93 C5.66 88.71 6.32 84.42 7 80 C9.1346875 79.7215625 9.1346875 79.7215625 11.3125 79.4375 C15.1675071 78.56329367 15.75609708 78.35150716 18.125 74.9375 C20.79542789 66.13845866 16.503652 56.20366747 13.96484375 47.8125 C13.56199908 46.46033486 13.15987602 45.10795455 12.75843811 43.75537109 C11.70803703 40.22256865 10.64873611 36.69250088 9.58721924 33.1630249 C8.29268297 28.85329537 7.00786133 24.5406619 5.72258091 20.22816467 C4.72431258 16.87881636 3.72427529 13.53003438 2.71873474 10.18286133 C2.3615889 8.99072021 2.00444305 7.7985791 1.63647461 6.5703125 C1.31972275 5.51602051 1.00297089 4.46172852 0.67662048 3.37548828 C0 1 0 1 0 0 Z " fill="#FFFFFF" transform="translate(371,43)"/>
<path d="M0 0 C5.27809789 4.25149111 7.87691307 8.97188638 8.91015625 15.67578125 C9.0807655 18.72167903 9.11847301 21.76632917 9.15625 24.81640625 C9.18919807 26.62760882 9.22240955 28.43880662 9.25585938 30.25 C9.30312993 33.08476391 9.3475691 35.91950982 9.38696289 38.75439453 C9.42700269 41.50443373 9.47847229 44.25408594 9.53125 47.00390625 C9.53966415 47.83859436 9.54807831 48.67328247 9.55674744 49.53326416 C9.58171043 50.73931305 9.58171043 50.73931305 9.60717773 51.96972656 C9.6174852 52.66302063 9.62779266 53.3563147 9.63841248 54.07061768 C10.04736241 57.9911545 11.05505807 61.82783944 11.91015625 65.67578125 C5.64015625 65.67578125 -0.62984375 65.67578125 -7.08984375 65.67578125 C-7.74984375 64.02578125 -8.40984375 62.37578125 -9.08984375 60.67578125 C-10.01796875 61.48015625 -10.94609375 62.28453125 -11.90234375 63.11328125 C-16.56831909 67.15712655 -21.17272346 67.01462258 -27.140625 66.95703125 C-32.34273769 66.46093573 -34.87862636 63.95428849 -38.33984375 60.30078125 C-42.61853437 53.88274531 -43.11040983 46.92705764 -41.66015625 39.46484375 C-39.97004034 34.01891471 -36.82965613 30.75107708 -32.08984375 27.67578125 C-25.05317268 24.59723766 -17.64463121 24.52160191 -10.08984375 24.67578125 C-10.20426836 23.07082558 -10.33179069 21.46680006 -10.46484375 19.86328125 C-10.53445313 18.96996094 -10.6040625 18.07664062 -10.67578125 17.15625 C-10.95629411 14.43179626 -10.95629411 14.43179626 -13.08984375 11.67578125 C-16.67341616 11.42562252 -16.67341616 11.42562252 -20.08984375 11.67578125 C-20.74984375 13.98578125 -21.40984375 16.29578125 -22.08984375 18.67578125 C-28.02984375 18.67578125 -33.96984375 18.67578125 -40.08984375 18.67578125 C-40.08984375 10.39844266 -39.61355991 7.39560568 -34.08984375 1.67578125 C-23.7728718 -5.25156356 -10.85068439 -6.87548039 0 0 Z M-21.890625 38.40625 C-23.21325185 40.90933208 -23.49340098 42.42539454 -23.46484375 45.23828125 C-23.47257812 46.00269531 -23.4803125 46.76710938 -23.48828125 47.5546875 C-22.99095341 50.20222687 -22.26696734 51.11567655 -20.08984375 52.67578125 C-16.75608131 52.55671831 -14.18382739 52.42429637 -11.3828125 50.5078125 C-9.49341253 47.83068686 -9.79809773 45.71990773 -9.90234375 42.48828125 C-9.92941406 41.40160156 -9.95648438 40.31492188 -9.984375 39.1953125 C-10.01917969 38.36386719 -10.05398438 37.53242187 -10.08984375 36.67578125 C-11.69252195 36.56753282 -13.29730123 36.4900748 -14.90234375 36.42578125 C-16.24232422 36.35617188 -16.24232422 36.35617188 -17.609375 36.28515625 C-20.1992594 36.45055469 -20.1992594 36.45055469 -21.890625 38.40625 Z " fill="#FFFFFF" transform="translate(304.08984375,45.32421875)"/>
<path d="M0 0 C5.08909698 4.97024334 8.63748262 9.2272901 9.3359375 16.49609375 C9.43132804 26.1209993 8.09749777 33.81876972 5 43 C4.17274414 42.78794922 3.34548828 42.57589844 2.49316406 42.35742188 C-0.58465687 41.57089645 -3.66352595 40.78865453 -6.74316406 40.00927734 C-8.07432762 39.67146625 -9.40506342 39.33196479 -10.73535156 38.99072266 C-12.6505509 38.49975601 -14.56744681 38.01542258 -16.484375 37.53125 C-17.63647461 37.23798828 -18.78857422 36.94472656 -19.97558594 36.64257812 C-23.13679024 35.86145016 -23.13679024 35.86145016 -27 36 C-27.38932267 43.00833025 -27.38932267 43.00833025 -24 49 C-17.51415573 52.83379354 -10.16820574 52.17297912 -3 51 C-2.34 54.96 -1.68 58.92 -1 63 C-8.29319201 67.37591521 -15.18676238 68.04887162 -23.5546875 66.5390625 C-30.54315071 64.68853486 -37.3263684 61.73287467 -41.63671875 55.71484375 C-47.521237 45.3452772 -47.16337287 34.48753239 -44.3125 23.1875 C-41.11212773 12.54181724 -37.49606883 4.35599495 -28 -2 C-19.30354549 -6.49079208 -8.06244841 -5.624964 0 0 Z M-22 16 C-22.66 17.98 -23.32 19.96 -24 22 C-19.05 23.32 -14.1 24.64 -9 26 C-8.00586828 22.02347311 -7.63649642 19.0712401 -8 15 C-9.94797566 12.18625737 -11.10415102 11.20673438 -14.4375 10.4375 C-18.194255 11.26215354 -19.61751492 13.03799152 -22 16 Z " fill="#FFFFFF" transform="translate(198,80)"/>
</svg>
